<svg width="44" height="44" viewBox="0 0 44 44" fill="none" xmlns="http://www.w3.org/2000/svg">
<path d="M22 0C9.84973 0 0 9.84973 0 22C0 34.1503 9.84973 44 22 44C34.1503 44 44 34.1503 44 22C44 9.84973 34.1503 0 22 0Z" fill="#5873FF"/>
<path d="M24.7807 9.62204C25.1577 8.21525 23.467 7.18526 22.3901 8.1659L8.01393 21.2534C7.09948 22.0859 7.57089 23.6072 8.79585 23.7766L19.7865 25.2979C20.6555 25.4182 21.2224 26.2729 20.9954 27.1205L19.0323 34.4439C18.6553 35.8506 20.3462 36.8806 21.4231 35.9003L35.7991 22.8126C36.7136 21.9802 36.2421 20.4587 35.0174 20.2892L24.0266 18.7679C23.1575 18.6476 22.5904 17.7929 22.8177 16.9455L24.7807 9.62204Z" fill="#FFDB00" stroke="#FFDB00" stroke-width="1.21547" stroke-linecap="round" stroke-linejoin="round"/>
</svg>
