<svg width="280" height="44" viewBox="0 0 280 44" fill="none" xmlns="http://www.w3.org/2000/svg">
<path d="M22 0C9.84973 0 0 9.84973 0 22C0 34.1503 9.84973 44 22 44C34.1503 44 44 34.1503 44 22C44 9.84973 34.1503 0 22 0Z" fill="#5873FF"/>
<path d="M24.7807 9.62204C25.1577 8.21525 23.467 7.18526 22.3901 8.1659L8.01393 21.2534C7.09948 22.0859 7.57089 23.6072 8.79585 23.7766L19.7865 25.2979C20.6555 25.4182 21.2224 26.2729 20.9954 27.1205L19.0323 34.4439C18.6553 35.8506 20.3462 36.8806 21.4231 35.9003L35.7991 22.8126C36.7136 21.9802 36.2421 20.4587 35.0174 20.2892L24.0266 18.7679C23.1575 18.6476 22.5904 17.7929 22.8177 16.9455L24.7807 9.62204Z" fill="#FFDB00" stroke="#FFDB00" stroke-width="1.21547" stroke-linecap="round" stroke-linejoin="round"/>
<path d="M58.1763 10.5126C58.1763 5.05657 62.6945 1.26294 69.2587 1.26294C75.5672 1.26294 79.574 4.75819 79.7445 10.3847H74.2885C74.1606 7.69932 72.2425 6.12219 69.1735 6.12219C65.8061 6.12219 63.6322 7.74194 63.6322 10.3421C63.6322 12.5586 64.8257 13.7947 67.4259 14.3914L72.3278 15.457C77.6559 16.6079 80.256 19.3359 80.256 23.982C80.256 29.779 75.7377 33.53 68.8751 33.53C62.2256 33.53 57.8779 29.9922 57.75 24.4083H63.206C63.2486 27.051 65.3799 28.6282 68.8751 28.6282C72.4982 28.6282 74.8 27.051 74.8 24.4509C74.8 22.3623 73.7344 21.1262 71.1769 20.572L66.2324 19.4638C60.9469 18.3129 58.1763 15.2865 58.1763 10.5126Z" fill="white"/>
<path d="M96.999 11.9192H102.199V32.9759H97.3826L96.999 30.1627C95.7202 32.166 92.9922 33.53 90.179 33.53C85.3197 33.53 82.4639 30.2479 82.4639 25.0903V11.9192H87.6641V23.2574C87.6641 27.2642 89.2412 28.8839 92.1397 28.8839C95.4219 28.8839 96.999 26.9658 96.999 22.959V11.9192Z" fill="white"/>
<path d="M105.865 42.7373V11.9194H110.682L111.023 15.1163C112.302 12.6867 115.072 11.28 118.269 11.28C124.194 11.28 128.115 15.5851 128.115 22.192C128.115 28.7563 124.535 33.5303 118.269 33.5303C115.115 33.5303 112.387 32.2941 111.065 30.1629V42.7373H105.865ZM111.108 22.4478C111.108 26.2414 113.452 28.8415 117.033 28.8415C120.699 28.8415 122.873 26.1988 122.873 22.4478C122.873 18.6968 120.699 16.0114 117.033 16.0114C113.452 16.0114 111.108 18.6541 111.108 22.4478Z" fill="white"/>
<path d="M139.971 33.5303C133.706 33.5303 129.315 28.9694 129.315 22.4478C129.315 15.8409 133.62 11.28 139.801 11.28C146.109 11.28 150.116 15.4999 150.116 22.0641V23.6413L134.26 23.6839C134.643 27.3923 136.604 29.2678 140.056 29.2678C142.912 29.2678 144.788 28.1595 145.384 26.1561H150.201C149.306 30.7596 145.47 33.5303 139.971 33.5303ZM139.843 15.5425C136.775 15.5425 134.899 17.2049 134.388 20.3591H144.958C144.958 17.4606 142.955 15.5425 139.843 15.5425Z" fill="white"/>
<path d="M165.787 11.8338V16.6504H163.868C160.117 16.6504 157.773 18.6537 157.773 22.7457V32.9757H152.573V11.9617H157.475L157.773 15.0306C158.668 12.942 160.672 11.5354 163.485 11.5354C164.209 11.5354 164.934 11.6207 165.787 11.8338Z" fill="white"/>
<path d="M166.346 11.9192H169.373V9.36169C169.373 3.64994 172.399 1.26294 176.96 1.26294C177.77 1.26294 178.75 1.30556 179.645 1.47607V5.90907H177.812C175.17 5.90907 174.53 7.27307 174.53 9.36169V11.9192H179.56V16.2669H174.53V32.9759H169.373V16.2669H166.346V11.9192Z" fill="white"/>
<path d="M195.452 11.9192H200.652V32.9759H195.836L195.452 30.1627C194.173 32.166 191.445 33.53 188.632 33.53C183.773 33.53 180.917 30.2479 180.917 25.0903V11.9192H186.117V23.2574C186.117 27.2642 187.694 28.8839 190.593 28.8839C193.875 28.8839 195.452 26.9658 195.452 22.959V11.9192Z" fill="white"/>
<path d="M213.323 33.5303C207.057 33.5303 202.667 28.9694 202.667 22.4478C202.667 15.8409 206.972 11.28 213.153 11.28C219.461 11.28 223.468 15.4999 223.468 22.0641V23.6413L207.611 23.6839C207.995 27.3923 209.956 29.2678 213.408 29.2678C216.264 29.2678 218.14 28.1595 218.736 26.1561H223.553C222.658 30.7596 218.822 33.5303 213.323 33.5303ZM213.195 15.5425C210.126 15.5425 208.251 17.2049 207.739 20.3591H218.31C218.31 17.4606 216.307 15.5425 213.195 15.5425Z" fill="white"/>
<path d="M231.168 32.9759H226.01V1.26294H231.168V32.9759Z" fill="white"/>
<path d="M248.154 32.976H242.485L253.738 1.81714H259.322L270.575 32.976H264.821L262.306 25.7724H250.669L248.154 32.976ZM255.827 11.1094L252.289 21.1689H260.729L257.148 11.1094C256.893 10.2995 256.594 9.36176 256.509 8.72239C256.381 9.31914 256.125 10.2569 255.827 11.1094Z" fill="white"/>
<path d="M278.233 1.81714V32.976H272.777V1.81714H278.233Z" fill="white"/>
</svg>
